<mxfile host="app.diagrams.net" modified="2023-12-01T07:14:30.246Z" agent="Mozilla/5.0 (Windows NT 10.0; Win64; x64) AppleWebKit/537.36 (KHTML, like Gecko) Chrome/119.0.0.0 Safari/537.36" etag="FW1DRVnZUxdmBF82t-X7" version="22.1.5" type="device">
  <diagram id="lnUfrtiX9rJX5eBwv-UR" name="BT5">
    <mxGraphModel dx="880" dy="434" grid="1" gridSize="10" guides="1" tooltips="1" connect="1" arrows="1" fold="1" page="1" pageScale="1" pageWidth="827" pageHeight="1169" math="0" shadow="0">
      <root>
        <mxCell id="0" />
        <mxCell id="1" parent="0" />
        <mxCell id="kU67Dbf8_JoqEQ_B0any-1" style="edgeStyle=orthogonalEdgeStyle;rounded=0;orthogonalLoop=1;jettySize=auto;html=1;exitX=0.5;exitY=1;exitDx=0;exitDy=0;" parent="1" source="kU67Dbf8_JoqEQ_B0any-2" edge="1">
          <mxGeometry relative="1" as="geometry">
            <mxPoint x="280" y="190" as="targetPoint" />
          </mxGeometry>
        </mxCell>
        <mxCell id="kU67Dbf8_JoqEQ_B0any-2" value="start" style="ellipse;whiteSpace=wrap;html=1;" parent="1" vertex="1">
          <mxGeometry x="220" y="50" width="120" height="80" as="geometry" />
        </mxCell>
        <mxCell id="kU67Dbf8_JoqEQ_B0any-3" style="edgeStyle=orthogonalEdgeStyle;rounded=0;orthogonalLoop=1;jettySize=auto;html=1;exitX=0.5;exitY=1;exitDx=0;exitDy=0;entryX=0.5;entryY=0;entryDx=0;entryDy=0;" parent="1" source="kU67Dbf8_JoqEQ_B0any-4" target="kU67Dbf8_JoqEQ_B0any-6" edge="1">
          <mxGeometry relative="1" as="geometry" />
        </mxCell>
        <mxCell id="kU67Dbf8_JoqEQ_B0any-4" value="arrangeArr(int *n)" style="rounded=0;whiteSpace=wrap;html=1;" parent="1" vertex="1">
          <mxGeometry x="640" y="60" width="120" height="60" as="geometry" />
        </mxCell>
        <mxCell id="kU67Dbf8_JoqEQ_B0any-5" style="edgeStyle=orthogonalEdgeStyle;rounded=0;orthogonalLoop=1;jettySize=auto;html=1;exitX=0.5;exitY=1;exitDx=0;exitDy=0;entryX=0.5;entryY=0;entryDx=0;entryDy=0;" parent="1" source="kU67Dbf8_JoqEQ_B0any-6" target="kU67Dbf8_JoqEQ_B0any-9" edge="1">
          <mxGeometry relative="1" as="geometry" />
        </mxCell>
        <mxCell id="kU67Dbf8_JoqEQ_B0any-6" value="a = *n&lt;br&gt;a = i&lt;br&gt;a = j&lt;br&gt;a = temp&lt;br&gt;arr[a]&lt;br&gt;" style="rounded=0;whiteSpace=wrap;html=1;" parent="1" vertex="1">
          <mxGeometry x="640" y="170" width="120" height="80" as="geometry" />
        </mxCell>
        <mxCell id="kU67Dbf8_JoqEQ_B0any-7" style="edgeStyle=orthogonalEdgeStyle;rounded=0;orthogonalLoop=1;jettySize=auto;html=1;exitX=0.5;exitY=1;exitDx=0;exitDy=0;entryX=0.5;entryY=0;entryDx=0;entryDy=0;" parent="1" source="kU67Dbf8_JoqEQ_B0any-9" target="kU67Dbf8_JoqEQ_B0any-11" edge="1">
          <mxGeometry relative="1" as="geometry" />
        </mxCell>
        <mxCell id="kU67Dbf8_JoqEQ_B0any-8" style="edgeStyle=orthogonalEdgeStyle;rounded=0;orthogonalLoop=1;jettySize=auto;html=1;exitX=1;exitY=0.5;exitDx=0;exitDy=0;" parent="1" source="kU67Dbf8_JoqEQ_B0any-9" edge="1">
          <mxGeometry relative="1" as="geometry">
            <mxPoint x="900" y="330" as="targetPoint" />
          </mxGeometry>
        </mxCell>
        <mxCell id="kU67Dbf8_JoqEQ_B0any-9" value="i&amp;lt;a?" style="rhombus;whiteSpace=wrap;html=1;" parent="1" vertex="1">
          <mxGeometry x="660" y="290" width="80" height="80" as="geometry" />
        </mxCell>
        <mxCell id="kU67Dbf8_JoqEQ_B0any-10" style="edgeStyle=orthogonalEdgeStyle;rounded=0;orthogonalLoop=1;jettySize=auto;html=1;exitX=0.5;exitY=1;exitDx=0;exitDy=0;" parent="1" source="kU67Dbf8_JoqEQ_B0any-11" edge="1">
          <mxGeometry relative="1" as="geometry">
            <mxPoint x="700" y="490" as="targetPoint" />
          </mxGeometry>
        </mxCell>
        <mxCell id="kU67Dbf8_JoqEQ_B0any-11" value="nhap vao gia tri phan tu" style="shape=parallelogram;perimeter=parallelogramPerimeter;whiteSpace=wrap;html=1;fixedSize=1;" parent="1" vertex="1">
          <mxGeometry x="640" y="400" width="120" height="60" as="geometry" />
        </mxCell>
        <mxCell id="kU67Dbf8_JoqEQ_B0any-12" style="edgeStyle=orthogonalEdgeStyle;rounded=0;orthogonalLoop=1;jettySize=auto;html=1;exitX=0;exitY=0.5;exitDx=0;exitDy=0;entryX=0;entryY=0.5;entryDx=0;entryDy=0;" parent="1" source="kU67Dbf8_JoqEQ_B0any-13" target="kU67Dbf8_JoqEQ_B0any-9" edge="1">
          <mxGeometry relative="1" as="geometry" />
        </mxCell>
        <mxCell id="kU67Dbf8_JoqEQ_B0any-13" value="i++" style="rounded=0;whiteSpace=wrap;html=1;" parent="1" vertex="1">
          <mxGeometry x="640" y="490" width="120" height="60" as="geometry" />
        </mxCell>
        <mxCell id="kU67Dbf8_JoqEQ_B0any-14" style="edgeStyle=orthogonalEdgeStyle;rounded=0;orthogonalLoop=1;jettySize=auto;html=1;exitX=0.5;exitY=1;exitDx=0;exitDy=0;" parent="1" source="kU67Dbf8_JoqEQ_B0any-16" target="kU67Dbf8_JoqEQ_B0any-18" edge="1">
          <mxGeometry relative="1" as="geometry" />
        </mxCell>
        <mxCell id="kU67Dbf8_JoqEQ_B0any-15" style="edgeStyle=orthogonalEdgeStyle;rounded=0;orthogonalLoop=1;jettySize=auto;html=1;exitX=1;exitY=0.5;exitDx=0;exitDy=0;" parent="1" source="kU67Dbf8_JoqEQ_B0any-16" edge="1">
          <mxGeometry relative="1" as="geometry">
            <mxPoint x="1200" y="330" as="targetPoint" />
          </mxGeometry>
        </mxCell>
        <mxCell id="kU67Dbf8_JoqEQ_B0any-16" value="i&amp;lt;a?" style="rhombus;whiteSpace=wrap;html=1;" parent="1" vertex="1">
          <mxGeometry x="900" y="290" width="80" height="80" as="geometry" />
        </mxCell>
        <mxCell id="kU67Dbf8_JoqEQ_B0any-17" style="edgeStyle=orthogonalEdgeStyle;rounded=0;orthogonalLoop=1;jettySize=auto;html=1;exitX=0.5;exitY=1;exitDx=0;exitDy=0;" parent="1" source="kU67Dbf8_JoqEQ_B0any-18" edge="1">
          <mxGeometry relative="1" as="geometry">
            <mxPoint x="940" y="490" as="targetPoint" />
          </mxGeometry>
        </mxCell>
        <mxCell id="kU67Dbf8_JoqEQ_B0any-18" value="in ra gia tri va chi so phan tu trong mang." style="shape=parallelogram;perimeter=parallelogramPerimeter;whiteSpace=wrap;html=1;fixedSize=1;" parent="1" vertex="1">
          <mxGeometry x="880" y="400" width="120" height="60" as="geometry" />
        </mxCell>
        <mxCell id="kU67Dbf8_JoqEQ_B0any-19" style="edgeStyle=orthogonalEdgeStyle;rounded=0;orthogonalLoop=1;jettySize=auto;html=1;exitX=0;exitY=0.5;exitDx=0;exitDy=0;" parent="1" source="kU67Dbf8_JoqEQ_B0any-20" edge="1">
          <mxGeometry relative="1" as="geometry">
            <mxPoint x="850" y="330" as="targetPoint" />
          </mxGeometry>
        </mxCell>
        <mxCell id="kU67Dbf8_JoqEQ_B0any-20" value="i++" style="rounded=0;whiteSpace=wrap;html=1;" parent="1" vertex="1">
          <mxGeometry x="880" y="490" width="120" height="60" as="geometry" />
        </mxCell>
        <mxCell id="kU67Dbf8_JoqEQ_B0any-21" style="edgeStyle=orthogonalEdgeStyle;rounded=0;orthogonalLoop=1;jettySize=auto;html=1;exitX=0.5;exitY=1;exitDx=0;exitDy=0;" parent="1" source="kU67Dbf8_JoqEQ_B0any-23" target="kU67Dbf8_JoqEQ_B0any-26" edge="1">
          <mxGeometry relative="1" as="geometry" />
        </mxCell>
        <mxCell id="kU67Dbf8_JoqEQ_B0any-22" style="edgeStyle=orthogonalEdgeStyle;rounded=0;orthogonalLoop=1;jettySize=auto;html=1;exitX=1;exitY=0.5;exitDx=0;exitDy=0;" parent="1" source="kU67Dbf8_JoqEQ_B0any-23" edge="1">
          <mxGeometry relative="1" as="geometry">
            <mxPoint x="1510.800048828125" y="330" as="targetPoint" />
          </mxGeometry>
        </mxCell>
        <mxCell id="kU67Dbf8_JoqEQ_B0any-23" value="i&amp;lt;a-1?" style="rhombus;whiteSpace=wrap;html=1;" parent="1" vertex="1">
          <mxGeometry x="1201" y="290" width="80" height="80" as="geometry" />
        </mxCell>
        <mxCell id="kU67Dbf8_JoqEQ_B0any-24" style="edgeStyle=orthogonalEdgeStyle;rounded=0;orthogonalLoop=1;jettySize=auto;html=1;exitX=0.5;exitY=1;exitDx=0;exitDy=0;entryX=0.5;entryY=0;entryDx=0;entryDy=0;" parent="1" source="kU67Dbf8_JoqEQ_B0any-26" target="kU67Dbf8_JoqEQ_B0any-28" edge="1">
          <mxGeometry relative="1" as="geometry" />
        </mxCell>
        <mxCell id="kU67Dbf8_JoqEQ_B0any-25" style="edgeStyle=orthogonalEdgeStyle;rounded=0;orthogonalLoop=1;jettySize=auto;html=1;exitX=1;exitY=0.5;exitDx=0;exitDy=0;" parent="1" source="kU67Dbf8_JoqEQ_B0any-26" edge="1">
          <mxGeometry relative="1" as="geometry">
            <mxPoint x="1350" y="460" as="targetPoint" />
          </mxGeometry>
        </mxCell>
        <mxCell id="kU67Dbf8_JoqEQ_B0any-26" value="j&amp;lt;a-i-1?" style="rhombus;whiteSpace=wrap;html=1;" parent="1" vertex="1">
          <mxGeometry x="1201" y="420" width="80" height="80" as="geometry" />
        </mxCell>
        <mxCell id="kU67Dbf8_JoqEQ_B0any-27" style="edgeStyle=orthogonalEdgeStyle;rounded=0;orthogonalLoop=1;jettySize=auto;html=1;exitX=0.5;exitY=1;exitDx=0;exitDy=0;entryX=0.5;entryY=0;entryDx=0;entryDy=0;" parent="1" source="kU67Dbf8_JoqEQ_B0any-28" target="kU67Dbf8_JoqEQ_B0any-30" edge="1">
          <mxGeometry relative="1" as="geometry" />
        </mxCell>
        <mxCell id="kU67Dbf8_JoqEQ_B0any-28" value="arr[j] &amp;gt; arr[j+1]?" style="rhombus;whiteSpace=wrap;html=1;" parent="1" vertex="1">
          <mxGeometry x="1201" y="545" width="80" height="80" as="geometry" />
        </mxCell>
        <mxCell id="kU67Dbf8_JoqEQ_B0any-29" style="edgeStyle=orthogonalEdgeStyle;rounded=0;orthogonalLoop=1;jettySize=auto;html=1;exitX=0.5;exitY=1;exitDx=0;exitDy=0;" parent="1" source="kU67Dbf8_JoqEQ_B0any-30" edge="1">
          <mxGeometry relative="1" as="geometry">
            <mxPoint x="1241" y="740" as="targetPoint" />
          </mxGeometry>
        </mxCell>
        <mxCell id="kU67Dbf8_JoqEQ_B0any-30" value="temp = arr[j]&lt;br&gt;arr[j] = arr[j+1]&lt;br&gt;arr[j+1] = temp" style="rounded=0;whiteSpace=wrap;html=1;" parent="1" vertex="1">
          <mxGeometry x="1181" y="650" width="120" height="60" as="geometry" />
        </mxCell>
        <mxCell id="kU67Dbf8_JoqEQ_B0any-31" style="edgeStyle=orthogonalEdgeStyle;rounded=0;orthogonalLoop=1;jettySize=auto;html=1;exitX=0;exitY=0.5;exitDx=0;exitDy=0;entryX=0;entryY=0.5;entryDx=0;entryDy=0;" parent="1" source="kU67Dbf8_JoqEQ_B0any-32" target="kU67Dbf8_JoqEQ_B0any-26" edge="1">
          <mxGeometry relative="1" as="geometry" />
        </mxCell>
        <mxCell id="kU67Dbf8_JoqEQ_B0any-32" value="j++" style="rounded=0;whiteSpace=wrap;html=1;" parent="1" vertex="1">
          <mxGeometry x="1180" y="740" width="120" height="60" as="geometry" />
        </mxCell>
        <mxCell id="kU67Dbf8_JoqEQ_B0any-33" style="edgeStyle=orthogonalEdgeStyle;rounded=0;orthogonalLoop=1;jettySize=auto;html=1;exitX=0.5;exitY=0;exitDx=0;exitDy=0;" parent="1" source="kU67Dbf8_JoqEQ_B0any-34" edge="1">
          <mxGeometry relative="1" as="geometry">
            <mxPoint x="1240" y="400" as="targetPoint" />
            <Array as="points">
              <mxPoint x="1400" y="400" />
            </Array>
          </mxGeometry>
        </mxCell>
        <mxCell id="kU67Dbf8_JoqEQ_B0any-34" value="i++" style="rounded=0;whiteSpace=wrap;html=1;" parent="1" vertex="1">
          <mxGeometry x="1350" y="430" width="120" height="60" as="geometry" />
        </mxCell>
        <mxCell id="kU67Dbf8_JoqEQ_B0any-35" value="gia tri va chi so phan tu sau khi sap xep" style="shape=parallelogram;perimeter=parallelogramPerimeter;whiteSpace=wrap;html=1;fixedSize=1;" parent="1" vertex="1">
          <mxGeometry x="1500" y="300" width="120" height="60" as="geometry" />
        </mxCell>
        <mxCell id="kU67Dbf8_JoqEQ_B0any-36" value="true" style="text;html=1;align=center;verticalAlign=middle;resizable=0;points=[];autosize=1;strokeColor=none;fillColor=none;" parent="1" vertex="1">
          <mxGeometry x="700" y="368" width="40" height="30" as="geometry" />
        </mxCell>
        <mxCell id="kU67Dbf8_JoqEQ_B0any-37" value="false" style="text;html=1;align=center;verticalAlign=middle;resizable=0;points=[];autosize=1;strokeColor=none;fillColor=none;" parent="1" vertex="1">
          <mxGeometry x="775" y="298" width="50" height="30" as="geometry" />
        </mxCell>
        <mxCell id="kU67Dbf8_JoqEQ_B0any-38" value="true" style="text;html=1;align=center;verticalAlign=middle;resizable=0;points=[];autosize=1;strokeColor=none;fillColor=none;" parent="1" vertex="1">
          <mxGeometry x="940" y="358" width="40" height="30" as="geometry" />
        </mxCell>
        <mxCell id="kU67Dbf8_JoqEQ_B0any-39" value="false" style="text;html=1;align=center;verticalAlign=middle;resizable=0;points=[];autosize=1;strokeColor=none;fillColor=none;" parent="1" vertex="1">
          <mxGeometry x="1045" y="298" width="50" height="30" as="geometry" />
        </mxCell>
        <mxCell id="kU67Dbf8_JoqEQ_B0any-40" value="false" style="text;html=1;align=center;verticalAlign=middle;resizable=0;points=[];autosize=1;strokeColor=none;fillColor=none;" parent="1" vertex="1">
          <mxGeometry x="1345" y="298" width="50" height="30" as="geometry" />
        </mxCell>
        <mxCell id="kU67Dbf8_JoqEQ_B0any-41" value="true" style="text;html=1;align=center;verticalAlign=middle;resizable=0;points=[];autosize=1;strokeColor=none;fillColor=none;" parent="1" vertex="1">
          <mxGeometry x="1240" y="368" width="40" height="30" as="geometry" />
        </mxCell>
        <mxCell id="kU67Dbf8_JoqEQ_B0any-42" value="false" style="text;html=1;align=center;verticalAlign=middle;resizable=0;points=[];autosize=1;strokeColor=none;fillColor=none;" parent="1" vertex="1">
          <mxGeometry x="1285" y="438" width="50" height="30" as="geometry" />
        </mxCell>
        <mxCell id="kU67Dbf8_JoqEQ_B0any-43" value="true" style="text;html=1;align=center;verticalAlign=middle;resizable=0;points=[];autosize=1;strokeColor=none;fillColor=none;" parent="1" vertex="1">
          <mxGeometry x="1230" y="508" width="40" height="30" as="geometry" />
        </mxCell>
        <mxCell id="kU67Dbf8_JoqEQ_B0any-44" value="true" style="text;html=1;align=center;verticalAlign=middle;resizable=0;points=[];autosize=1;strokeColor=none;fillColor=none;" parent="1" vertex="1">
          <mxGeometry x="1240" y="608" width="40" height="30" as="geometry" />
        </mxCell>
        <mxCell id="kU67Dbf8_JoqEQ_B0any-45" style="edgeStyle=orthogonalEdgeStyle;rounded=0;orthogonalLoop=1;jettySize=auto;html=1;exitX=0.5;exitY=1;exitDx=0;exitDy=0;entryX=0.5;entryY=0;entryDx=0;entryDy=0;" parent="1" source="kU67Dbf8_JoqEQ_B0any-46" target="kU67Dbf8_JoqEQ_B0any-48" edge="1">
          <mxGeometry relative="1" as="geometry" />
        </mxCell>
        <mxCell id="kU67Dbf8_JoqEQ_B0any-46" value="n" style="shape=parallelogram;perimeter=parallelogramPerimeter;whiteSpace=wrap;html=1;fixedSize=1;" parent="1" vertex="1">
          <mxGeometry x="220" y="190" width="120" height="60" as="geometry" />
        </mxCell>
        <mxCell id="kU67Dbf8_JoqEQ_B0any-47" style="edgeStyle=orthogonalEdgeStyle;rounded=0;orthogonalLoop=1;jettySize=auto;html=1;exitX=0.5;exitY=1;exitDx=0;exitDy=0;" parent="1" source="kU67Dbf8_JoqEQ_B0any-48" edge="1">
          <mxGeometry relative="1" as="geometry">
            <mxPoint x="280" y="400" as="targetPoint" />
          </mxGeometry>
        </mxCell>
        <mxCell id="kU67Dbf8_JoqEQ_B0any-48" value="arrangeArr(&amp;amp;n)" style="rounded=0;whiteSpace=wrap;html=1;" parent="1" vertex="1">
          <mxGeometry x="220" y="298" width="120" height="60" as="geometry" />
        </mxCell>
        <mxCell id="kU67Dbf8_JoqEQ_B0any-49" value="end" style="ellipse;whiteSpace=wrap;html=1;" parent="1" vertex="1">
          <mxGeometry x="220" y="398" width="120" height="80" as="geometry" />
        </mxCell>
      </root>
    </mxGraphModel>
  </diagram>
</mxfile>
